<?xml version="1.0" encoding="UTF-8" standalone="no"?>
<!-- Created with Inkscape (http://www.inkscape.org/) and export_objects.py -->

<svg
   xmlns:dc="http://purl.org/dc/elements/1.1/"
   xmlns:cc="http://creativecommons.org/ns#"
   xmlns:rdf="http://www.w3.org/1999/02/22-rdf-syntax-ns#"
   xmlns:svg="http://www.w3.org/2000/svg"
   xmlns="http://www.w3.org/2000/svg"
   xmlns:sodipodi="http://sodipodi.sourceforge.net/DTD/sodipodi-0.dtd"
   xmlns:inkscape="http://www.inkscape.org/namespaces/inkscape"
   version="1.1"
   id="svg1"
   width="16"
   height="16"
   viewBox="0 0 16 16"
   sodipodi:docname="zoom-symbolic.svg"
   inkscape:version="0.92.2 2405546, 2018-03-11">
  <metadata
     id="metadata10">
    <rdf:RDF>
      <cc:Work
         rdf:about="">
        <dc:format>image/svg+xml</dc:format>
        <dc:type
           rdf:resource="http://purl.org/dc/dcmitype/StillImage" />
      </cc:Work>
    </rdf:RDF>
  </metadata>
  <defs
     id="defs8" />
  <sodipodi:namedview
     objecttolerance="10"
     gridtolerance="10"
     guidetolerance="10"
     id="namedview"
     showgrid="true"
     inkscape:zoom="3.2453373"
     inkscape:cx="-35.451789"
     inkscape:cy="41.637135"
     inkscape:window-width="1541"
     inkscape:window-height="845"
     inkscape:window-x="1659"
     inkscape:window-y="27"
     inkscape:window-maximized="1"
     inkscape:current-layer="svg1">
    <inkscape:grid
       type="xygrid"
       id="grid" />
  </sodipodi:namedview>
  <g
     transform="matrix(0.666667,0,0,0.666667,-190,-392.90812)"
     inkscape:label="00125"
     id="zoom"
     style="fill:#000000">
    <path
       inkscape:connector-curvature="0"
       id="rect14085"
       d="m 285,589.36218 h 24 v 24 h -24 z"
       style="opacity:0;fill:#000000" />
    <path
       id="path14089"
       d="m 296.4611,591.3622 c -5.2682,0 -9.5389,4.1724 -9.5389,9.299 0,5.1268 4.2707,9.26 9.5389,9.26 1.8739,0 3.6132,-0.5373 5.0874,-1.4455 L 305,612.3622 c 0.6588,0.6397 1.6958,0.6101 2.345,-0.039 l 0.3179,-0.3126 c 0.6492,-0.6492 0.6588,-1.7046 0,-2.3442 l -3.372,-3.7695 c 1.0675,-1.499 1.7091,-3.2737 1.7091,-5.2357 0,-5.1267 -4.2707,-9.2989 -9.5389,-9.2989 z m 0,2.5006 c 3.8633,0 6.9952,3.0787 6.9952,6.8766 0,3.7978 -3.1319,6.8766 -6.9952,6.8766 -3.8633,0 -6.9952,-3.0788 -6.9952,-6.8766 0,-3.7979 3.1319,-6.8766 6.9952,-6.8766 z"
       style="fill:#000000;opacity:1"
       inkscape:connector-curvature="0" />
  </g>
</svg>
