<?xml version="1.0" encoding="UTF-8" standalone="no"?>
<svg
   xmlns:dc="http://purl.org/dc/elements/1.1/"
   xmlns:cc="http://creativecommons.org/ns#"
   xmlns:rdf="http://www.w3.org/1999/02/22-rdf-syntax-ns#"
   xmlns:svg="http://www.w3.org/2000/svg"
   xmlns="http://www.w3.org/2000/svg"
   xmlns:sodipodi="http://sodipodi.sourceforge.net/DTD/sodipodi-0.dtd"
   xmlns:inkscape="http://www.inkscape.org/namespaces/inkscape"
   id="svg1"
   width="24"
   height="24"
   version="1.1"
   sodipodi:docname="draw-spiral.svg"
   inkscape:version="0.92.2 2405546, 2018-03-11">
  <metadata
     id="metadata8">
    <rdf:RDF>
      <cc:Work
         rdf:about="">
        <dc:format>image/svg+xml</dc:format>
        <dc:type
           rdf:resource="http://purl.org/dc/dcmitype/StillImage" />
        <dc:title />
      </cc:Work>
    </rdf:RDF>
  </metadata>
  <sodipodi:namedview
     id="base"
     showgrid="false"
     pagecolor="#797979"
     inkscape:pageopacity="0"
     inkscape:zoom="48.555581"
     inkscape:cx="8.0714764"
     inkscape:cy="16.06493"
     inkscape:window-width="1541"
     inkscape:window-height="845"
     inkscape:window-x="1659"
     inkscape:window-y="27"
     inkscape:window-maximized="1"
     inkscape:current-layer="draw-spiral">
    <inkscape:grid
       id="GridFromPre046Settings"
       type="xygrid"
       originx="0pt"
       originy="0pt"
       spacingx="1pt"
       spacingy="1pt"
       color="#3f3fff"
       empcolor="#3f3fff"
       opacity="0.15"
       empopacity="0.38"
       empspacing="5" />
  </sodipodi:namedview>
  <defs
     id="defs3" />
  <g
     id="draw-spiral"
     transform="translate(3892.5657,-1261.8252)"
     inkscape:label="#draw_arc">
    <rect
       style="color:#000000;display:inline;overflow:visible;visibility:visible;fill:none;stroke:none;stroke-width:15;marker:none;enable-background:accumulate"
       id="rect6342"
       width="24"
       height="24"
       x="-3892.5986"
       y="1261.8582" />
    <path
       inkscape:connector-curvature="0"
       style="color:#000000;font-style:normal;font-variant:normal;font-weight:normal;font-stretch:normal;font-size:medium;line-height:normal;font-family:Sans;-inkscape-font-specification:Sans;text-indent:0;text-align:start;text-decoration:none;text-decoration-line:none;letter-spacing:normal;word-spacing:normal;text-transform:none;writing-mode:lr-tb;direction:ltr;baseline-shift:baseline;text-anchor:start;display:inline;overflow:visible;visibility:visible;fill:#000000;fill-opacity:1;stroke:none;stroke-width:0.91742003;marker:none;enable-background:accumulate"
       d="m -3880.6142,1267.4832 c -3.5161,0 -6.3438,2.859 -6.3438,6.375 0,3.516 2.8276,6.375 6.3438,6.375 3.5159,0 6.3749,-2.859 6.375,-6.375 0,-3.516 -2.859,-6.375 -6.375,-6.375 z m 0,1 c 2.9754,0 5.4062,2.3994 5.4062,5.375 0,2.9755 -2.4307,5.375 -5.4062,5.375 -2.9756,0 -5.375,-2.3995 -5.375,-5.375 0,-2.9756 2.3994,-5.375 5.375,-5.375 z m 0,2.0937 c -1.8133,0 -3.2813,1.468 -3.2813,3.2813 0,1.8133 1.468,3.3125 3.2813,3.3125 1.8132,0 3.2813,-1.4992 3.2812,-3.3125 0,-1.8133 -1.468,-3.2813 -3.2812,-3.2813 z m 0,1 c 1.2728,0 2.2812,1.0084 2.2812,2.2813 0,1.2728 -1.0084,2.3125 -2.2812,2.3125 -1.2729,0 -2.2813,-1.0397 -2.2813,-2.3125 0,-1.2729 1.0084,-2.2813 2.2813,-2.2813 z"
       id="path6406" />
  </g>
</svg>
