<?xml version="1.0" encoding="UTF-8" standalone="no"?>
<svg
   xmlns:dc="http://purl.org/dc/elements/1.1/"
   xmlns:cc="http://creativecommons.org/ns#"
   xmlns:rdf="http://www.w3.org/1999/02/22-rdf-syntax-ns#"
   xmlns:svg="http://www.w3.org/2000/svg"
   xmlns="http://www.w3.org/2000/svg"
   xmlns:sodipodi="http://sodipodi.sourceforge.net/DTD/sodipodi-0.dtd"
   xmlns:inkscape="http://www.inkscape.org/namespaces/inkscape"
   id="svg1"
   width="24.069053"
   height="24"
   version="1.1"
   sodipodi:docname="draw-polygon-star.svg"
   inkscape:version="0.92.2 2405546, 2018-03-11">
  <metadata
     id="metadata25">
    <rdf:RDF>
      <cc:Work
         rdf:about="">
        <dc:format>image/svg+xml</dc:format>
        <dc:type
           rdf:resource="http://purl.org/dc/dcmitype/StillImage" />
        <dc:title />
      </cc:Work>
    </rdf:RDF>
  </metadata>
  <sodipodi:namedview
     id="base"
     showgrid="false"
     pagecolor="#333333"
     inkscape:pageopacity="0"
     inkscape:zoom="23.20226"
     inkscape:cx="-2.8115431"
     inkscape:cy="7.3468902"
     inkscape:window-width="1541"
     inkscape:window-height="845"
     inkscape:window-x="1659"
     inkscape:window-y="27"
     inkscape:window-maximized="1"
     inkscape:current-layer="draw-polygon-star">
    <inkscape:grid
       id="GridFromPre046Settings"
       type="xygrid"
       originx="0pt"
       originy="0pt"
       spacingx="1pt"
       spacingy="1pt"
       color="#3f3fff"
       empcolor="#3f3fff"
       opacity="0.15"
       empopacity="0.38"
       empspacing="5" />
  </sodipodi:namedview>
  <defs
     id="defs3">
    <linearGradient
       id="linearGradient6679">
      <stop
         id="stop6681"
         offset="0"
         style="stop-color:#ffeb74;stop-opacity:1" />
      <stop
         id="stop6683"
         offset="1"
         style="stop-color:#ffffff;stop-opacity:1" />
    </linearGradient>
    <linearGradient
       id="linearGradient5704">
      <stop
         id="stop5706"
         offset="0"
         style="stop-color:#5a5a5a;stop-opacity:1" />
      <stop
         id="stop5708"
         offset="1"
         style="stop-color:#000000;stop-opacity:1" />
    </linearGradient>
  </defs>
  <g
     id="draw-polygon-star"
     transform="translate(3892.8333,-1238.062)"
     inkscape:label="#g6798">
    <rect
       y="1237.8582"
       x="-3892.5986"
       height="24"
       width="24"
       id="rect6340"
       style="color:#000000;display:inline;overflow:visible;visibility:visible;fill:none;stroke:none;stroke-width:15;marker:none;enable-background:accumulate" />
    <path
       style="color:#000000;font-style:normal;font-variant:normal;font-weight:normal;font-stretch:normal;font-size:medium;line-height:normal;font-family:Sans;-inkscape-font-specification:Sans;text-indent:0;text-align:start;text-decoration:none;text-decoration-line:none;letter-spacing:normal;word-spacing:normal;text-transform:none;writing-mode:lr-tb;direction:ltr;baseline-shift:baseline;text-anchor:start;display:inline;overflow:visible;visibility:visible;fill:#000000;fill-opacity:1;stroke:none;stroke-width:1.40503657;marker:none;enable-background:accumulate"
       d="m -3880.5805,1242.4428 -0.3255,0.217 -7.126,5.2089 -0.3617,0.2532 0.1446,0.3617 2.6768,8.3559 0.1447,0.4341 h 0.4341 l 8.79,-0.036 h 0.3979 l 0.1446,-0.3618 2.713,-8.3558 0.1446,-0.4341 -0.3254,-0.2171 -7.126,-5.1726 -0.3257,-0.2533 z m -0.1092,1.5192 -0.4341,1.4108 -1.0129,3.147 -3.3278,-0.036 h -1.4469 l 6.2217,-4.5216 z m 0.2169,0 6.2217,4.5578 -1.483,-0.036 -3.2918,0.036 -1.0128,-3.147 z m -0.1092,3.5088 0.5787,1.8086 0.1093,0.3979 h 0.4703 1.881 l -1.5554,1.0852 -0.3618,0.2532 0.1446,0.4341 0.6151,1.7724 -1.5554,-1.1213 -0.3257,-0.2532 -0.3255,0.2532 -1.5554,1.1213 0.6149,-1.8086 0.1093,-0.3617 -0.3255,-0.2894 -1.5554,-1.0852 h 1.9172 l 0.3978,0.036 0.1447,-0.4341 0.5787,-1.8086 z m -6.3665,1.266 1.1576,0.832 2.6768,1.881 -1.049,3.147 -0.434,1.3384 z m 12.6966,0.036 -2.3511,7.1622 -0.4341,-1.3384 -1.049,-3.147 2.7129,-1.9171 z m -6.3301,4.5216 2.6767,1.9533 1.1215,0.832 -7.6687,0.036 1.1937,-0.8681 2.6768,-1.9534 z"
       id="path6404"
       inkscape:connector-curvature="0" />
  </g>
</svg>
