<?xml version="1.0" encoding="UTF-8" standalone="no"?>
<svg
   xmlns:dc="http://purl.org/dc/elements/1.1/"
   xmlns:cc="http://creativecommons.org/ns#"
   xmlns:rdf="http://www.w3.org/1999/02/22-rdf-syntax-ns#"
   xmlns:svg="http://www.w3.org/2000/svg"
   xmlns="http://www.w3.org/2000/svg"
   xmlns:sodipodi="http://sodipodi.sourceforge.net/DTD/sodipodi-0.dtd"
   xmlns:inkscape="http://www.inkscape.org/namespaces/inkscape"
   id="svg1"
   width="24"
   height="24"
   version="1.1"
   sodipodi:docname="draw-eraser.svg"
   inkscape:version="0.92.2 2405546, 2018-03-11">
  <metadata
     id="metadata15">
    <rdf:RDF>
      <cc:Work
         rdf:about="">
        <dc:format>image/svg+xml</dc:format>
        <dc:type
           rdf:resource="http://purl.org/dc/dcmitype/StillImage" />
        <dc:title />
      </cc:Work>
    </rdf:RDF>
  </metadata>
  <sodipodi:namedview
     id="base"
     showgrid="false"
     inkscape:snap-to-guides="false"
     pagecolor="#373737"
     inkscape:pageopacity="0"
     inkscape:zoom="17.166991"
     inkscape:cx="-7.9902137"
     inkscape:cy="9.5547575"
     inkscape:window-width="1541"
     inkscape:window-height="845"
     inkscape:window-x="1659"
     inkscape:window-y="27"
     inkscape:window-maximized="1"
     inkscape:current-layer="draw-eraser">
    <inkscape:grid
       id="GridFromPre046Settings"
       type="xygrid"
       originx="0pt"
       originy="0pt"
       spacingx="1pt"
       spacingy="1pt"
       color="#3f3fff"
       empcolor="#3f3fff"
       opacity="0.15"
       empopacity="0.38"
       empspacing="5" />
  </sodipodi:namedview>
  <defs
     id="defs3">
    <linearGradient
       id="eraserFill">
      <stop
         id="stop5742_1"
         offset="0"
         style="stop-color:#ffffff;stop-opacity:1" />
      <stop
         id="stop5744_1"
         offset="1"
         style="stop-color:#f3b698;stop-opacity:1" />
    </linearGradient>
  </defs>
  <g
     id="draw-eraser"
     transform="translate(3892.6752,-1405.4838)"
     inkscape:label="#draw_erase">
    <rect
       style="color:#000000;display:inline;overflow:visible;visibility:visible;fill:none;stroke:none;stroke-width:15;marker:none;enable-background:accumulate"
       id="rect6356"
       width="24"
       height="24"
       x="-3892.5986"
       y="1405.8582" />
    <path
       inkscape:connector-curvature="0"
       style="color:#000000;font-style:normal;font-variant:normal;font-weight:normal;font-stretch:normal;font-size:medium;line-height:normal;font-family:Sans;-inkscape-font-specification:Sans;text-indent:0;text-align:start;text-decoration:none;text-decoration-line:none;letter-spacing:normal;word-spacing:normal;text-transform:none;writing-mode:lr-tb;direction:ltr;baseline-shift:baseline;text-anchor:start;display:inline;overflow:visible;visibility:visible;fill:#000000;fill-opacity:1;stroke:none;stroke-width:0.99999994;marker:none;enable-background:accumulate"
       d="m -3881.3799,1411.1942 c -0.2417,0.029 -0.496,0.09 -0.7187,0.2187 l -3.3126,1.9375 c -0.8908,0.5143 -1.2017,1.6717 -0.6874,2.5625 l 4.4374,7.6875 c 0.5143,0.8909 1.6718,1.2018 2.5626,0.6875 l 3.3124,-1.9375 c 0.891,-0.5143 1.2019,-1.6716 0.6876,-2.5625 l -4.4376,-7.6875 c -0.3857,-0.6681 -1.1186,-0.9943 -1.8437,-0.9062 z m 0.125,1 c 0.3384,-0.044 0.6905,0.087 0.875,0.4062 l 1.9687,3.4063 -4.8437,2.8125 -1.9687,-3.4063 c -0.2461,-0.426 -0.1136,-0.9415 0.3124,-1.1875 l 3.3126,-1.9375 c 0.1064,-0.062 0.2309,-0.079 0.3437,-0.094 z m 3.3437,4.6875 1.9688,3.4062 c 0.246,0.4261 0.082,0.9728 -0.3438,1.2188 l -3.3124,1.9062 c -0.4261,0.246 -0.9415,0.1136 -1.1876,-0.3125 l -1.9687,-3.4375 z"
       id="path6418" />
  </g>
</svg>
