<?xml version="1.0" encoding="UTF-8" standalone="no"?>
<svg
   xmlns:dc="http://purl.org/dc/elements/1.1/"
   xmlns:cc="http://creativecommons.org/ns#"
   xmlns:rdf="http://www.w3.org/1999/02/22-rdf-syntax-ns#"
   xmlns:svg="http://www.w3.org/2000/svg"
   xmlns="http://www.w3.org/2000/svg"
   xmlns:sodipodi="http://sodipodi.sourceforge.net/DTD/sodipodi-0.dtd"
   xmlns:inkscape="http://www.inkscape.org/namespaces/inkscape"
   id="svg1"
   width="24"
   height="24"
   version="1.1"
   sodipodi:docname="tool-spray.svg"
   inkscape:version="0.92.2 2405546, 2018-03-11">
  <metadata
     id="metadata42">
    <rdf:RDF>
      <cc:Work
         rdf:about="">
        <dc:format>image/svg+xml</dc:format>
        <dc:type
           rdf:resource="http://purl.org/dc/dcmitype/StillImage" />
        <dc:title />
      </cc:Work>
    </rdf:RDF>
  </metadata>
  <sodipodi:namedview
     id="base"
     showgrid="false"
     pagecolor="#585858"
     inkscape:pageopacity="0"
     inkscape:zoom="34.333983"
     inkscape:cx="0.29488304"
     inkscape:cy="11.422042"
     inkscape:window-width="1541"
     inkscape:window-height="845"
     inkscape:window-x="1659"
     inkscape:window-y="27"
     inkscape:window-maximized="1"
     inkscape:current-layer="tool-spray">
    <inkscape:grid
       id="GridFromPre046Settings"
       type="xygrid"
       originx="0pt"
       originy="0pt"
       spacingx="1pt"
       spacingy="1pt"
       color="#3f3fff"
       empcolor="#3f3fff"
       opacity="0.15"
       empopacity="0.38"
       empspacing="5" />
  </sodipodi:namedview>
  <defs
     id="defs3">
    <linearGradient
       id="linearGradient6684">
      <stop
         id="stop6686"
         offset="0"
         style="stop-color:#ffbf00;stop-opacity:1" />
      <stop
         id="stop6688"
         offset="1"
         style="stop-color:#ffffff;stop-opacity:1" />
    </linearGradient>
    <linearGradient
       id="linearGradient24464">
      <stop
         id="stop24466"
         offset="0"
         style="stop-color:#499204;stop-opacity:1" />
      <stop
         id="stop24468"
         offset="1"
         style="stop-color:#a7e26e;stop-opacity:1" />
    </linearGradient>
    <linearGradient
       id="linearGradient5704">
      <stop
         id="stop5706"
         offset="0"
         style="stop-color:#5a5a5a;stop-opacity:1" />
      <stop
         id="stop5708"
         offset="1"
         style="stop-color:#000000;stop-opacity:1" />
    </linearGradient>
  </defs>
  <g
     id="tool-spray"
     transform="translate(3892.6444,-1381.6677)"
     inkscape:label="#g7080">
    <rect
       y="1381.8582"
       x="-3892.5986"
       height="24"
       width="24"
       id="rect6354"
       style="color:#000000;display:inline;overflow:visible;visibility:visible;fill:none;stroke:none;stroke-width:15;marker:none;enable-background:accumulate" />
    <path
       inkscape:connector-curvature="0"
       style="color:#000000;display:inline;overflow:visible;visibility:visible;fill:#000000;fill-opacity:1;fill-rule:nonzero;stroke:none;stroke-width:1;marker:none;enable-background:accumulate"
       d="m -3880.5986,1387.2332 c -0.5928,0 -1.0626,0.4698 -1.0626,1.0625 0,0.5926 0.4698,1.0625 1.0626,1.0625 0.5926,0 1.0624,-0.4699 1.0624,-1.0625 0,-0.5927 -0.4699,-1.0625 -1.0624,-1.0625 z m -3.9376,1.625 c -0.2746,0 -0.5405,0.1029 -0.75,0.3125 -0.4191,0.4191 -0.4191,1.1121 0,1.5312 0.4192,0.4191 1.1122,0.4191 1.5313,0 0.4191,-0.419 0.4191,-1.1121 0,-1.5312 -0.2095,-0.2096 -0.5066,-0.3125 -0.7813,-0.3125 z m 7.875,0 c -0.2746,0 -0.5404,0.1029 -0.75,0.3125 -0.4191,0.4191 -0.4191,1.1122 0,1.5312 0.4192,0.4191 1.0809,0.4191 1.5,0 0.4192,-0.4191 0.4192,-1.1121 0,-1.5312 -0.2095,-0.2096 -0.4753,-0.3125 -0.75,-0.3125 z m -3.9374,2.9062 c -1.163,0 -2.0938,0.9308 -2.0938,2.0938 0,1.163 0.9308,2.0937 2.0938,2.0937 1.163,0 2.0937,-0.9307 2.0937,-2.0937 0,-1.163 -0.9308,-2.0938 -2.0937,-2.0938 z m -5.5626,1.0313 c -0.5925,0 -1.0624,0.4698 -1.0624,1.0625 0,0.5927 0.4699,1.0625 1.0624,1.0625 0.5928,0 1.0626,-0.4698 1.0626,-1.0625 -1e-4,-0.5927 -0.4698,-1.0625 -1.0626,-1.0625 z m 11.125,0 c -0.5925,0 -1.0624,0.4698 -1.0624,1.0625 0,0.5927 0.4699,1.0625 1.0624,1.0625 0.5927,0 1.0626,-0.4698 1.0626,-1.0625 0,-0.5927 -0.4698,-1.0625 -1.0626,-1.0625 z m -9.5,3.9375 c -0.2746,0 -0.5404,0.1029 -0.75,0.3125 -0.4191,0.4191 -0.4191,1.0809 0,1.5 0.4192,0.4191 1.1122,0.4191 1.5313,0 0.4191,-0.4191 0.4191,-1.0809 0,-1.5 -0.2096,-0.2096 -0.5066,-0.3125 -0.7813,-0.3125 z m 7.875,0 c -0.2746,0 -0.5405,0.1029 -0.75,0.3125 -0.419,0.4191 -0.4191,1.0809 0,1.5 0.4191,0.4191 1.0809,0.4191 1.5,0 0.4192,-0.4191 0.4192,-1.0809 0,-1.5 -0.2095,-0.2096 -0.4753,-0.3125 -0.75,-0.3125 z m -3.9374,1.625 c -0.5928,0 -1.0626,0.4698 -1.0626,1.0625 0,0.5926 0.4698,1.0625 1.0626,1.0625 0.5926,0 1.0624,-0.4699 1.0624,-1.0625 0,-0.5927 -0.4699,-1.0625 -1.0624,-1.0625 z"
       id="path6416" />
  </g>
</svg>
