<?xml version="1.0" encoding="UTF-8" standalone="no"?>
<svg
   xmlns:dc="http://purl.org/dc/elements/1.1/"
   xmlns:cc="http://creativecommons.org/ns#"
   xmlns:rdf="http://www.w3.org/1999/02/22-rdf-syntax-ns#"
   xmlns:svg="http://www.w3.org/2000/svg"
   xmlns="http://www.w3.org/2000/svg"
   xmlns:sodipodi="http://sodipodi.sourceforge.net/DTD/sodipodi-0.dtd"
   xmlns:inkscape="http://www.inkscape.org/namespaces/inkscape"
   id="svg1"
   width="24.000002"
   height="24.03868"
   version="1.1"
   sodipodi:docname="tool-node-editor.svg"
   inkscape:version="0.92.2 2405546, 2018-03-11">
  <metadata
     id="metadata12">
    <rdf:RDF>
      <cc:Work
         rdf:about="">
        <dc:format>image/svg+xml</dc:format>
        <dc:type
           rdf:resource="http://purl.org/dc/dcmitype/StillImage" />
        <dc:title />
      </cc:Work>
    </rdf:RDF>
  </metadata>
  <sodipodi:namedview
     id="base"
     showgrid="false"
     pagecolor="#7d7d7d"
     inkscape:pageopacity="0"
     inkscape:zoom="48.477454"
     inkscape:cx="8.9364863"
     inkscape:cy="8.0801229"
     inkscape:window-width="1541"
     inkscape:window-height="845"
     inkscape:window-x="1659"
     inkscape:window-y="27"
     inkscape:window-maximized="1"
     inkscape:current-layer="tool-node-editor">
    <inkscape:grid
       id="GridFromPre046Settings"
       type="xygrid"
       originx="0pt"
       originy="0pt"
       spacingx="1pt"
       spacingy="1pt"
       color="#3f3fff"
       empcolor="#3f3fff"
       opacity="0.15"
       empopacity="0.38"
       empspacing="5" />
  </sodipodi:namedview>
  <defs
     id="defs3" />
  <g
     id="tool-node-editor"
     transform="translate(3892.5871,-1093.6407)"
     inkscape:label="#g5228">
    <title
       id="title7119">#draw_node</title>
    <rect
       y="1093.8582"
       x="-3892.5986"
       height="24"
       width="24"
       id="rect6319"
       style="color:#000000;display:inline;overflow:visible;visibility:visible;fill:none;stroke:none;stroke-width:15;marker:none;enable-background:accumulate" />
    <path
       inkscape:connector-curvature="0"
       id="path6392"
       d="m -3880.5986,1099.3738 c -1.1113,0 -2.0528,0.795 -2.2813,1.8437 h -3.6563 c -0.1954,-0.4927 -0.6866,-0.8437 -1.25,-0.8437 -0.7363,0 -1.3124,0.6086 -1.3124,1.3437 0,0.7351 0.5761,1.3125 1.3124,1.3125 0.5526,0 1.0478,-0.3348 1.25,-0.8125 h 2.7813 c -1.4069,0.9894 -2.3439,2.6187 -2.3437,4.4688 v 1.3125 h -1.1876 -0.5 v 0.5 3.3437 0.5 h 0.5 3.4063 0.5 v -0.5 -3.3437 -0.5 h -0.5 -1.2187 v -1.3125 c 0,-1.7335 0.975,-3.2021 2.4062,-3.9375 0.3786,0.7742 1.1728,1.2812 2.0938,1.2812 0.9211,0 1.7154,-0.5068 2.0937,-1.2812 1.4312,0.7354 2.4061,2.204 2.4063,3.9375 v 1.3125 h -1.1876 -0.5 v 0.5 3.3437 0.5 h 0.5 3.375 0.5 v -0.5 -3.3437 -0.5 h -0.5 -1.1874 v -1.3125 c 0,-1.8501 -0.9368,-3.4794 -2.3438,-4.4688 h 2.7812 c 0.2028,0.4777 0.698,0.8125 1.25,0.8125 0.7365,0 1.3126,-0.5774 1.3126,-1.3125 -2e-4,-0.7351 -0.5761,-1.3437 -1.3126,-1.3437 -0.563,0 -1.0545,0.351 -1.25,0.8437 h -3.6562 c -0.228,-1.0493 -1.1698,-1.8437 -2.2812,-1.8437 z m 0,1 c 0.741,0 1.3437,0.604 1.3437,1.3437 0,0.7398 -0.6027,1.3125 -1.3437,1.3125 -0.741,0 -1.3438,-0.5727 -1.3438,-1.3125 0,-0.7397 0.6027,-1.3437 1.3438,-1.3437 z m -6.1876,8.625 h 2.4063 v 2.3437 h -2.4063 z m 10,0 h 2.375 v 2.3437 h -2.375 z"
       style="color:#000000;font-style:normal;font-variant:normal;font-weight:normal;font-stretch:normal;font-size:medium;line-height:normal;font-family:Sans;-inkscape-font-specification:Sans;text-indent:0;text-align:start;text-decoration:none;text-decoration-line:none;letter-spacing:normal;word-spacing:normal;text-transform:none;writing-mode:lr-tb;direction:ltr;baseline-shift:baseline;text-anchor:start;display:inline;overflow:visible;visibility:visible;fill:#000000;fill-opacity:1;stroke:none;stroke-width:0.99999994;marker:none;enable-background:accumulate" />
  </g>
</svg>
